<?xml version="1.0"?><!DOCTYPE svg  PUBLIC '-//W3C//DTD SVG 1.1//EN'  'http://www.w3.org/Graphics/SVG/1.1/DTD/svg11.dtd'><svg height="48px" id="Layer_1" style="enable-background:new 0 0 48 48;" version="1.1" viewBox="0 0 48 48" width="48px" xml:space="preserve" xmlns="http://www.w3.org/2000/svg" xmlns:xlink="http://www.w3.org/1999/xlink"><path d="M36.277,29.249c-0.324-2.808-3.135-4.976-6.553-4.963  c-0.338-3.734-3.83-6.621-8.032-6.563c-3.816,0.051-6.971,2.498-7.698,5.751C11.04,23.559,8.7,25.939,8.74,28.851  c0.029,2.206,1.423,4.074,3.375,4.853l0.829,0.144c0,0,14.24,0.755,20.593-0.104h0.011c0.485-0.073,0.913-0.146,1.3-0.239" style="fill:none;stroke:#231F20;stroke-miterlimit:10;"/><path d="M13.355,23.499c0,0,5.097-0.345,4.936,3.035" style="fill:none;stroke:#231F20;stroke-miterlimit:10;"/><path d="M29.98,24.238c0,0-4.689-0.074-4.499,3.784" style="fill:none;stroke:#231F20;stroke-miterlimit:10;"/><path d="M33.537,33.743c0.011,0,0.021,0,0.021,0" style="fill:none;stroke:#231F20;stroke-miterlimit:10;"/><path d="M36.131,28.523c0,0,1.242,4.023-1.456,5.027" style="fill:none;stroke:#231F20;stroke-miterlimit:10;"/><path d="M27.004,19.479c0.739-0.562,1.654-0.893,2.658-0.893  c2.46,0,4.467,2.007,4.467,4.467c0,0.816-0.221,1.577-0.607,2.239" style="fill:none;stroke:#231F20;stroke-miterlimit:10;"/><path d="M30.188,15.4c0,0.276-0.195,0.5-0.438,0.5l0,0c-0.242,0-0.438-0.224-0.438-0.5v-2.369  c0-0.276,0.196-0.502,0.438-0.502l0,0c0.243,0,0.438,0.226,0.438,0.502V15.4z" style="fill:#231F20;"/><path d="M37.631,23.356c-0.275,0-0.5-0.195-0.5-0.439l0,0c0-0.241,0.225-0.438,0.5-0.438h2.371  c0.277,0,0.5,0.196,0.5,0.438l0,0c0,0.244-0.223,0.439-0.5,0.439H37.631z" style="fill:#231F20;"/><path d="M35.479,17.81c-0.195,0.196-0.493,0.215-0.666,0.045l0,0c-0.17-0.171-0.15-0.47,0.046-0.664  l1.674-1.677c0.198-0.194,0.493-0.215,0.665-0.044l0,0c0.173,0.172,0.151,0.47-0.045,0.666L35.479,17.81z" style="fill:#231F20;"/><path d="M22.163,16.317c-0.196-0.197-0.215-0.494-0.044-0.664l0,0c0.171-0.173,0.469-0.152,0.665,0.043  l1.675,1.676c0.195,0.196,0.216,0.493,0.044,0.665l0,0c-0.171,0.17-0.468,0.151-0.665-0.046L22.163,16.317z" style="fill:#231F20;"/></svg>